<?xml version="1.0" encoding="UTF-8"?>
<svg version="1.1" xmlns="http://www.w3.org/2000/svg" width="48" height="48">
<path d="M0 0 C2.475 0.495 2.475 0.495 5 1 C5 1.66 5 2.32 5 3 C5.66 3 6.32 3 7 3 C8.61064629 6.65079826 9.44894091 10.0507432 10 14 C10.66 13.67 11.32 13.34 12 13 C16.57492082 12.6187566 19.20924731 12.68934716 23.5 14.375 C26.34567086 17.3629544 26.40745344 18.1003505 26.5 22.0625 C26.36820901 25.71420857 26.09506637 26.85740045 24 30 C23.01 30 22.02 30 21 30 C20.505 27.03 20.505 27.03 20 24 C17.03 24.33 14.06 24.66 11 25 C11.10828125 26.04800781 11.10828125 26.04800781 11.21875 27.1171875 C11.3115625 28.02726562 11.404375 28.93734375 11.5 29.875 C11.5928125 30.77992187 11.685625 31.68484375 11.78125 32.6171875 C12 35 12 35 12 37 C14.31 36.34 16.62 35.68 19 35 C18.51834131 41.38197767 18.51834131 41.38197767 16.375 43.9375 C13.20972335 45.35354482 10.43518244 45 7 45 C6.34 45.99 5.68 46.98 5 48 C2.0625 48.375 2.0625 48.375 -1 48 C-2 47 -3 46 -4 45 C-4.969375 45 -5.93875 45 -6.9375 45 C-10 45 -10 45 -12.3125 43.9375 C-14.72748814 41.16473584 -14.72920939 38.58797552 -15 35 C-12.69 35.66 -10.38 36.32 -8 37 C-8.020625 35.948125 -8.04125 34.89625 -8.0625 33.8125 C-8.01103198 30.67295096 -7.73482813 28.03116604 -7 25 C-9.97 24.67 -12.94 24.34 -16 24 C-16.33 25.98 -16.66 27.96 -17 30 C-18.9375 29.625 -18.9375 29.625 -21 29 C-22.86858013 25.26283974 -22.67446135 21.05986441 -22 17 C-19.40419895 14.2744089 -17.64507239 13.20411083 -13.890625 12.73828125 C-11.00305306 12.66978046 -8.61343416 12.69328292 -6 14 C-5.01 10.37 -4.02 6.74 -3 3 C-2.34 3 -1.68 3 -1 3 C-0.67 2.01 -0.34 1.02 0 0 Z " fill="#9166CB" transform="translate(22,0)"/>
<path d="M0 0 C1.65 0.33 3.3 0.66 5 1 C5 1.66 5 2.32 5 3 C5.66 3 6.32 3 7 3 C9.23771502 7.39797067 9.12781056 11.26957766 8.75 16.0625 C8.71003906 16.76955078 8.67007812 17.47660156 8.62890625 18.20507812 C8.3730414 21.88745743 7.9956473 24.85113029 6 28 C3.36 28 0.72 28 -2 28 C-4.27508954 24.32628984 -4.46089626 20.88502871 -4.75 16.625 C-4.84796875 15.33851562 -4.9459375 14.05203125 -5.046875 12.7265625 C-5.00028518 9.02267151 -4.37421413 6.41439358 -3 3 C-2.34 3 -1.68 3 -1 3 C-0.67 2.01 -0.34 1.02 0 0 Z " fill="#A78AD5" transform="translate(22,0)"/>
<path d="M0 0 C3.5 1.375 3.5 1.375 6 4 C6.90869359 8.95724807 6.81614957 12.77577564 4 17 C3.01 17 2.02 17 1 17 C0.67 15.02 0.34 13.04 0 11 C-4.455 11.495 -4.455 11.495 -9 12 C-9.33 12.99 -9.66 13.98 -10 15 C-10.99 15 -11.98 15 -13 15 C-12.93989582 13.06164034 -12.85108283 11.12415509 -12.75 9.1875 C-12.70359375 8.10855469 -12.6571875 7.02960937 -12.609375 5.91796875 C-12 3 -12 3 -10.1953125 1.140625 C-6.82340759 -0.6113256 -3.66009799 -0.59599297 0 0 Z " fill="#744EA9" transform="translate(42,13)"/>
<path d="M0 0 C2.1953125 1.140625 2.1953125 1.140625 4 3 C4.609375 5.91796875 4.609375 5.91796875 4.75 9.1875 C4.80671875 10.27417969 4.8634375 11.36085938 4.921875 12.48046875 C4.94765625 13.31191406 4.9734375 14.14335937 5 15 C3.68 14.67 2.36 14.34 1 14 C1 13.34 1 12.68 1 12 C-1.97 11.67 -4.94 11.34 -8 11 C-8.33 12.98 -8.66 14.96 -9 17 C-10.9375 16.625 -10.9375 16.625 -13 16 C-14.86858013 12.26283974 -14.67446135 8.05986441 -14 4 C-9.7429909 -0.46985955 -5.8236711 -0.65751125 0 0 Z " fill="#764FAB" transform="translate(14,13)"/>
<path d="M0 0 C3.3 0 6.6 0 10 0 C10.25 7.625 10.25 7.625 8 11 C5 11.375 5 11.375 2 11 C-0.67927341 6.98108988 -0.15601248 4.75838077 0 0 Z " fill="#A588D8" transform="translate(19,37)"/>
<path d="M0 0 C-0.48355011 6.40703902 -0.48355011 6.40703902 -2.6875 8.9375 C-5.61824763 10.28405972 -7.810549 10.28350676 -11 10 C-12 9 -12 9 -12.0625 5.4375 C-12.041875 4.303125 -12.02125 3.16875 -12 2 C-8.98968256 1.06576355 -8.13349732 0.95550089 -5 2 C-2 0 -2 0 0 0 Z " fill="#734DA9" transform="translate(41,35)"/>
<path d="M0 0 C1.5778125 0.495 1.5778125 0.495 3.1875 1 C6.38873357 1.83966782 8.7411008 2.19750904 12 2 C12.04241723 4.33294775 12.04092937 6.66702567 12 9 C11 10 11 10 8.1875 10.25 C4.60241208 9.96881663 3.35338649 9.70203634 1 7 C0.25 3.3125 0.25 3.3125 0 0 Z " fill="#754EAD" transform="translate(7,35)"/>
</svg>
